{
  "accessors": [
    {
      "bufferView": 2,
      "componentType": 5126,
      "count": 96,
      "max": [
        0.6510385870933533,
        1.6545823812484741,
        0.8480019569396973
      ],
      "min": [
        -0.4125957190990448,
        0.799660861492157,
        0.7127652168273926
      ],
      "type": "VEC3"
    },
    {
      "bufferView": 2,
      "byteOffset": 1152,
      "componentType": 5126,
      "count": 96,
      "max": [
        -0.08982490748167038,
        -0.03151527792215347,
        -0.9911849498748779
      ],
      "min": [
        -0.09446175396442413,
        -0.09508776664733887,
        -0.9954589009284973
      ],
      "type": "VEC3"
    },
    {
      "bufferView": 3,
      "componentType": 5126,
      "count": 96,
      "max": [
        0.9960784316062927,
        0.9725490212440491,
        0.9647058844566345,
        1.0
      ],
      "min": [
        0.9960784316062927,
        0.9725490212440491,
        0.9647058844566345,
        0.0
      ],
      "type": "VEC4"
    },
    {
      "bufferView": 1,
      "componentType": 5126,
      "count": 96,
      "max": [
        4.538904666900635,
        1.0
      ],
      "min": [
        0.0939178615808487,
        0.0
      ],
      "type": "VEC2"
    },
    {
      "bufferView": 0,
      "componentType": 5125,
      "count": 270,
      "type": "SCALAR"
    },
    {
      "bufferView": 2,
      "byteOffset": 2304,
      "componentType": 5126,
      "count": 324,
      "max": [
        0.6735522150993347,
        1.6906756162643433,
        0.8737092018127441
      ],
      "min": [
        -0.443063884973526,
        0.7437235116958618,
        0.6834098696708679
      ],
      "type": "VEC3"
    },
    {
      "bufferView": 2,
      "byteOffset": 6192,
      "componentType": 5126,
      "count": 324,
      "max": [
        0.9983637928962708,
        0.9983848333358765,
        0.9961672425270081
      ],
      "min": [
        -0.9983619451522827,
        -0.9983847141265869,
        -0.9961611032485962
      ],
      "type": "VEC3"
    },
    {
      "bufferView": 3,
      "byteOffset": 1536,
      "componentType": 5126,
      "count": 324,
      "max": [
        0.6980392336845398,
        0.6352941393852234,
        0.6117647290229797,
        1.0
      ],
      "min": [
        0.6980392336845398,
        0.6352941393852234,
        0.6117647290229797,
        1.0
      ],
      "type": "VEC4"
    },
    {
      "bufferView": 1,
      "byteOffset": 768,
      "componentType": 5126,
      "count": 324,
      "max": [
        0.0,
        1.0
      ],
      "min": [
        0.0,
        1.0
      ],
      "type": "VEC2"
    },
    {
      "bufferView": 0,
      "byteOffset": 1080,
      "componentType": 5125,
      "count": 324,
      "type": "SCALAR"
    },
    {
      "bufferView": 2,
      "byteOffset": 10080,
      "componentType": 5126,
      "count": 1432,
      "max": [
        0.6327717304229736,
        1.589410662651062,
        0.853157639503479
      ],
      "min": [
        -0.691541314125061,
        0.7923450469970703,
        0.14448505640029907
      ],
      "type": "VEC3"
    },
    {
      "bufferView": 2,
      "byteOffset": 27264,
      "componentType": 5126,
      "count": 1432,
      "max": [
        0.9720075130462646,
        0.9861398935317993,
        0.998849630355835
      ],
      "min": [
        -0.9232223033905029,
        -0.9999427795410156,
        -0.9999881386756897
      ],
      "type": "VEC3"
    },
    {
      "bufferView": 3,
      "byteOffset": 6720,
      "componentType": 5126,
      "count": 1432,
      "max": [
        0.6980392336845398,
        0.6352941393852234,
        0.6117647290229797,
        1.0
      ],
      "min": [
        0.0784313753247261,
        0.07450980693101883,
        0.07450980693101883,
        0.0
      ],
      "type": "VEC4"
    },
    {
      "bufferView": 1,
      "byteOffset": 3360,
      "componentType": 5126,
      "count": 1432,
      "max": [
        6.304093837738037,
        1.0
      ],
      "min": [
        0.012140986509621143,
        0.0
      ],
      "type": "VEC2"
    },
    {
      "bufferView": 0,
      "byteOffset": 2376,
      "componentType": 5125,
      "count": 4104,
      "type": "SCALAR"
    },
    {
      "bufferView": 2,
      "byteOffset": 44448,
      "componentType": 5126,
      "count": 4222,
      "max": [
        0.5581218600273132,
        1.3805649280548096,
        0.8016091585159302
      ],
      "min": [
        -0.7175535559654236,
        0.11688222736120224,
        -1.5169947147369385
      ],
      "type": "VEC3"
    },
    {
      "bufferView": 2,
      "byteOffset": 95112,
      "componentType": 5126,
      "count": 4222,
      "max": [
        0.9871753454208374,
        0.9993243217468262,
        0.9996817111968994
      ],
      "min": [
        -0.9968134760856628,
        -0.9986047744750977,
        -0.999358594417572
      ],
      "type": "VEC3"
    },
    {
      "bufferView": 3,
      "byteOffset": 29632,
      "componentType": 5126,
      "count": 4222,
      "max": [
        0.9529411792755127,
        0.9490196108818054,
        0.9490196108818054,
        1.0
      ],
      "min": [
        0.0470588244497776,
        0.05882352963089943,
        0.07450980693101883,
        1.0
      ],
      "type": "VEC4"
    },
    {
      "bufferView": 1,
      "byteOffset": 14816,
      "componentType": 5126,
      "count": 4222,
      "max": [
        0.0,
        1.0
      ],
      "min": [
        0.0,
        1.0
      ],
      "type": "VEC2"
    },
    {
      "bufferView": 0,
      "byteOffset": 18792,
      "componentType": 5125,
      "count": 4242,
      "type": "SCALAR"
    },
    {
      "bufferView": 2,
      "byteOffset": 145776,
      "componentType": 5126,
      "count": 2540,
      "max": [
        0.1395834982395172,
        0.4184606671333313,
        -1.2213695049285889
      ],
      "min": [
        -0.3866058588027954,
        -0.19643497467041016,
        -1.5313441753387451
      ],
      "type": "VEC3"
    },
    {
      "bufferView": 2,
      "byteOffset": 176256,
      "componentType": 5126,
      "count": 2540,
      "max": [
        0.9914470911026001,
        0.9946318864822388,
        0.9998109340667725
      ],
      "min": [
        -0.9914470911026001,
        -0.9946318864822388,
        -0.9998108744621277
      ],
      "type": "VEC3"
    },
    {
      "bufferView": 3,
      "byteOffset": 97184,
      "componentType": 5126,
      "count": 2540,
      "max": [
        0.32156863808631897,
        0.34117648005485535,
        0.37254902720451355,
        1.0
      ],
      "min": [
        0.32156863808631897,
        0.34117648005485535,
        0.37254902720451355,
        1.0
      ],
      "type": "VEC4"
    },
    {
      "bufferView": 1,
      "byteOffset": 48592,
      "componentType": 5126,
      "count": 2540,
      "max": [
        1.4441927671432495,
        1.0
      ],
      "min": [
        0.146535262465477,
        0.0
      ],
      "type": "VEC2"
    },
    {
      "bufferView": 0,
      "byteOffset": 35760,
      "componentType": 5125,
      "count": 12864,
      "type": "SCALAR"
    }
  ],
  "asset": {
    "extras": {
      "author": "AS110VR (https://sketchfab.com/AS110VR)",
      "license": "CC-BY-SA-4.0 (http://creativecommons.org/licenses/by-sa/4.0/)",
      "source": "https://sketchfab.com/3d-models/pay-attention-by-tony-ea871fe2f7b346bfbbd813620cb00154",
      "title": "PAY ATTENTION by Tony"
    },
    "generator": "Sketchfab-15.17.0",
    "version": "2.0"
  },
  "bufferViews": [
    {
      "buffer": 0,
      "byteLength": 87216,
      "name": "floatBufferViews",
      "target": 34963
    },
    {
      "buffer": 0,
      "byteLength": 68912,
      "byteOffset": 87216,
      "byteStride": 8,
      "name": "floatBufferViews",
      "target": 34962
    },
    {
      "buffer": 0,
      "byteLength": 206736,
      "byteOffset": 156128,
      "byteStride": 12,
      "name": "floatBufferViews",
      "target": 34962
    },
    {
      "buffer": 0,
      "byteLength": 137824,
      "byteOffset": 362864,
      "byteStride": 16,
      "name": "floatBufferViews",
      "target": 34962
    }
  ],
  "buffers": [
    {
      "byteLength": 500688,
      "uri": "scene.bin"
    }
  ],
  "images": [
    {
      "uri": "textures/brush_Marker_baseColor.png"
    }
  ],
  "materials": [
    {
      "doubleSided": true,
      "name": "brush_Flat"
    },
    {
      "doubleSided": true,
      "name": "brush_ShinyHull"
    },
    {
      "alphaCutoff": 0.067,
      "alphaMode": "MASK",
      "doubleSided": true,
      "name": "brush_Marker",
      "pbrMetallicRoughness": {
        "baseColorTexture": {
          "index": 0
        },
        "metallicFactor": 0.0
      }
    },
    {
      "doubleSided": true,
      "name": "brush_MatteHull"
    },
    {
      "doubleSided": true,
      "name": "brush_Wire"
    }
  ],
  "meshes": [
    {
      "name": "Object_0",
      "primitives": [
        {
          "attributes": {
            "COLOR_0": 2,
            "NORMAL": 1,
            "POSITION": 0,
            "TEXCOORD_0": 3
          },
          "indices": 4,
          "material": 0,
          "mode": 4
        }
      ]
    },
    {
      "name": "Object_1",
      "primitives": [
        {
          "attributes": {
            "COLOR_0": 7,
            "NORMAL": 6,
            "POSITION": 5,
            "TEXCOORD_0": 8
          },
          "indices": 9,
          "material": 1,
          "mode": 4
        }
      ]
    },
    {
      "name": "Object_2",
      "primitives": [
        {
          "attributes": {
            "COLOR_0": 12,
            "NORMAL": 11,
            "POSITION": 10,
            "TEXCOORD_0": 13
          },
          "indices": 14,
          "material": 2,
          "mode": 4
        }
      ]
    },
    {
      "name": "Object_3",
      "primitives": [
        {
          "attributes": {
            "COLOR_0": 17,
            "NORMAL": 16,
            "POSITION": 15,
            "TEXCOORD_0": 18
          },
          "indices": 19,
          "material": 3,
          "mode": 4
        }
      ]
    },
    {
      "name": "Object_4",
      "primitives": [
        {
          "attributes": {
            "COLOR_0": 22,
            "NORMAL": 21,
            "POSITION": 20,
            "TEXCOORD_0": 23
          },
          "indices": 24,
          "material": 4,
          "mode": 4
        }
      ]
    }
  ],
  "nodes": [
    {
      "children": [
        1
      ],
      "matrix": [
        1.0,
        0.0,
        0.0,
        0.0,
        0.0,
        2.220446049250313e-16,
        -1.0,
        0.0,
        0.0,
        1.0,
        2.220446049250313e-16,
        0.0,
        0.0,
        0.0,
        0.0,
        1.0
      ],
      "name": "Sketchfab_model"
    },
    {
      "children": [
        2
      ],
      "name": "root"
    },
    {
      "children": [
        3,
        5,
        7,
        9,
        11
      ],
      "matrix": [
        1.0,
        0.0,
        0.0,
        0.0,
        0.0,
        2.220446049250313e-16,
        1.0,
        0.0,
        0.0,
        -1.0,
        2.220446049250313e-16,
        0.0,
        0.0,
        0.0,
        0.0,
        1.0
      ],
      "name": "GLTF_SceneRootNode"
    },
    {
      "children": [
        4
      ],
      "name": "brush_Flat_g0_b0_0"
    },
    {
      "mesh": 0,
      "name": "Object_4"
    },
    {
      "children": [
        6
      ],
      "name": "brush_ShinyHull_g0_b0_3"
    },
    {
      "mesh": 1,
      "name": "Object_6"
    },
    {
      "children": [
        8
      ],
      "name": "brush_Marker_g0_b0_4"
    },
    {
      "mesh": 2,
      "name": "Object_8"
    },
    {
      "children": [
        10
      ],
      "name": "brush_MatteHull_g0_b0_5"
    },
    {
      "mesh": 3,
      "name": "Object_10"
    },
    {
      "children": [
        12
      ],
      "name": "brush_Wire_g0_b0_6"
    },
    {
      "mesh": 4,
      "name": "Object_12"
    }
  ],
  "samplers": [
    {
      "magFilter": 9729,
      "minFilter": 9987,
      "wrapS": 10497,
      "wrapT": 10497
    }
  ],
  "scene": 0,
  "scenes": [
    {
      "name": "Sketchfab_Scene",
      "nodes": [
        0
      ]
    }
  ],
  "textures": [
    {
      "sampler": 0,
      "source": 0
    }
  ]
}
